<svg width="32" height="32" viewBox="0 0 32 32" fill="none" xmlns="http://www.w3.org/2000/svg">
<rect width="32" height="32" fill="#0015CF"/>
<path d="M18.4215 7.88961C18.4215 7.3181 18.2501 6.75942 17.929 6.28423C17.6078 5.80904 17.1513 5.43867 16.6173 5.21996C16.0832 5.00125 15.4956 4.94403 14.9286 5.05552C14.3617 5.16702 13.8409 5.44223 13.4322 5.84635C13.0234 6.25047 12.7451 6.76535 12.6323 7.32587C12.5195 7.8864 12.5774 8.46741 12.7986 8.99541C13.0198 9.52342 13.3944 9.97471 13.8751 10.2922C14.3557 10.6097 14.9208 10.7792 15.4988 10.7792C16.274 10.7792 17.0174 10.4748 17.5655 9.93287C18.1136 9.39096 18.4215 8.65598 18.4215 7.88961ZM15.4988 9.33441C15.2098 9.33441 14.9273 9.24968 14.6869 9.09092C14.4466 8.93216 14.2593 8.70651 14.1487 8.44251C14.0381 8.17851 14.0092 7.88801 14.0656 7.60774C14.1219 7.32748 14.2611 7.07004 14.4655 6.86798C14.6699 6.66592 14.9303 6.52831 15.2137 6.47257C15.4972 6.41682 15.791 6.44543 16.0581 6.55478C16.3251 6.66414 16.5533 6.84932 16.7139 7.08692C16.8745 7.32452 16.9602 7.60385 16.9602 7.88961C16.9602 8.27279 16.8062 8.64029 16.5322 8.91124C16.2581 9.18219 15.8864 9.33441 15.4988 9.33441ZM24.9519 12.1978C24.8688 11.7933 24.6453 11.4301 24.3201 11.1711C23.9949 10.9121 23.5885 10.7735 23.1709 10.7792H7.82674C7.41033 10.7792 7.00642 10.9199 6.68192 11.1779C6.35743 11.4359 6.13183 11.7957 6.04252 12.1978C5.9532 12.6 6.00553 13.0202 6.19082 13.3889C6.37612 13.7576 6.68326 14.0526 7.06136 14.2251H7.07324L11.7085 16.2433L9.79043 23.442C9.58974 23.8791 9.57288 24.3771 9.74357 24.8264C9.91426 25.2758 10.2585 25.6397 10.7006 25.8381C11.1427 26.0365 11.6463 26.0532 12.1009 25.8845C12.5554 25.7157 12.9234 25.3754 13.1241 24.9383L15.4988 20.8865L17.8735 24.9383C18.0846 25.3567 18.4515 25.6779 18.8972 25.8344C19.3429 25.9908 19.8325 25.9702 20.2632 25.777C20.6938 25.5837 21.0319 25.2329 21.2063 24.7983C21.3806 24.3636 21.3777 23.8791 21.1981 23.4465L19.2801 16.2478L23.9153 14.2296H23.9272C24.3113 14.0629 24.6242 13.7683 24.8115 13.3971C24.9987 13.0259 25.0484 12.6015 24.9519 12.1978ZM23.3262 12.9112L18.1265 15.1741C17.9673 15.2435 17.8384 15.3667 17.7629 15.5216C17.6874 15.6766 17.6703 15.853 17.7146 16.0193L19.8034 23.8727C19.8141 23.9148 19.8291 23.9556 19.8482 23.9947C19.8788 24.0595 19.8893 24.1318 19.8783 24.2025C19.8673 24.2732 19.8353 24.3391 19.7864 24.3918C19.7375 24.4446 19.6739 24.4817 19.6036 24.4986C19.5332 24.5155 19.4594 24.5114 19.3915 24.4868C19.3007 24.4538 19.2268 24.3866 19.186 24.2999C19.1767 24.2803 19.1664 24.2613 19.1549 24.243L16.1309 19.0868C16.0666 18.9774 15.9744 18.8865 15.8635 18.8233C15.7526 18.7602 15.6268 18.7269 15.4988 18.7269C15.3708 18.7269 15.2451 18.7602 15.1341 18.8233C15.0232 18.8865 14.931 18.9774 14.8668 19.0868L11.8455 24.2385C11.834 24.2568 11.8237 24.2758 11.8144 24.2954C11.7736 24.3821 11.6997 24.4493 11.6089 24.4823C11.541 24.5069 11.4672 24.511 11.3968 24.4941C11.3265 24.4772 11.2629 24.44 11.214 24.3873C11.165 24.3346 11.1331 24.2687 11.1221 24.198C11.1111 24.1273 11.1216 24.0549 11.1522 23.9901C11.1713 23.9511 11.1863 23.9103 11.197 23.8682L13.2831 16.0166C13.3274 15.8503 13.3103 15.6738 13.2348 15.5189C13.1593 15.364 13.0303 15.2408 12.8711 15.1714L7.67147 12.9112C7.59684 12.876 7.53649 12.8168 7.5003 12.7433C7.46412 12.6697 7.45423 12.5863 7.47226 12.5065C7.49029 12.4267 7.53517 12.3553 7.59956 12.304C7.66395 12.2527 7.74405 12.2245 7.82674 12.224H23.1709C23.2538 12.2239 23.3344 12.2516 23.3992 12.3027C23.4641 12.3538 23.5094 12.4252 23.5278 12.5051C23.5462 12.5851 23.5365 12.6689 23.5004 12.7427C23.4642 12.8165 23.4038 12.8759 23.3289 12.9112H23.3262Z" fill="white"/>
</svg>
