<svg width="32" height="33" viewBox="0 0 32 33" fill="none" xmlns="http://www.w3.org/2000/svg">
<path d="M22.7075 17.2075L12.7075 27.2075C12.6146 27.3004 12.5043 27.3741 12.3829 27.4244C12.2615 27.4747 12.1314 27.5006 12 27.5006C11.8686 27.5006 11.7385 27.4747 11.6171 27.4244C11.4957 27.3741 11.3854 27.3004 11.2925 27.2075C11.1996 27.1146 11.1259 27.0043 11.0756 26.8829C11.0253 26.7615 10.9995 26.6314 10.9995 26.5C10.9995 26.3686 11.0253 26.2385 11.0756 26.1171C11.1259 25.9957 11.1996 25.8854 11.2925 25.7925L20.5863 16.5L11.2925 7.20751C11.1049 7.01987 10.9995 6.76537 10.9995 6.50001C10.9995 6.23464 11.1049 5.98015 11.2925 5.79251C11.4801 5.60487 11.7346 5.49945 12 5.49945C12.2654 5.49945 12.5199 5.60487 12.7075 5.79251L22.7075 15.7925C22.8005 15.8854 22.8742 15.9957 22.9246 16.1171C22.9749 16.2385 23.0008 16.3686 23.0008 16.5C23.0008 16.6314 22.9749 16.7615 22.9246 16.8829C22.8742 17.0043 22.8005 17.1146 22.7075 17.2075Z" fill="black"/>
</svg>
