<svg width="32" height="33" viewBox="0 0 32 33" fill="none" xmlns="http://www.w3.org/2000/svg">
<path d="M20.7075 25.7925C20.8004 25.8854 20.8741 25.9957 20.9244 26.1171C20.9747 26.2385 21.0006 26.3686 21.0006 26.5C21.0006 26.6314 20.9747 26.7615 20.9244 26.8829C20.8741 27.0043 20.8004 27.1146 20.7075 27.2075C20.6146 27.3004 20.5043 27.3741 20.3829 27.4244C20.2615 27.4747 20.1314 27.5006 20 27.5006C19.8686 27.5006 19.7385 27.4747 19.6171 27.4244C19.4957 27.3741 19.3854 27.3004 19.2925 27.2075L9.29249 17.2075C9.19952 17.1146 9.12576 17.0043 9.07543 16.8829C9.02511 16.7615 8.99921 16.6314 8.99921 16.5C8.99921 16.3686 9.02511 16.2385 9.07543 16.1171C9.12576 15.9957 9.19952 15.8854 9.29249 15.7925L19.2925 5.79251C19.4801 5.60487 19.7346 5.49945 20 5.49945C20.2654 5.49945 20.5199 5.60487 20.7075 5.79251C20.8951 5.98015 21.0006 6.23464 21.0006 6.50001C21.0006 6.76537 20.8951 7.01987 20.7075 7.20751L11.4137 16.5L20.7075 25.7925Z" fill="black"/>
</svg>
