<svg width="32" height="33" viewBox="0 0 32 33" fill="none" xmlns="http://www.w3.org/2000/svg">
<path d="M16 3.5C13.4288 3.5 10.9154 4.26244 8.77759 5.6909C6.63975 7.11935 4.97351 9.14968 3.98957 11.5251C3.00563 13.9006 2.74819 16.5144 3.2498 19.0362C3.75141 21.5579 4.98953 23.8743 6.80762 25.6924C8.6257 27.5105 10.9421 28.7486 13.4638 29.2502C15.9856 29.7518 18.5995 29.4944 20.9749 28.5104C23.3503 27.5265 25.3807 25.8603 26.8091 23.7224C28.2376 21.5846 29 19.0712 29 16.5C28.9964 13.0533 27.6256 9.74882 25.1884 7.31163C22.7512 4.87445 19.4467 3.50364 16 3.5ZM16 27.5C13.8244 27.5 11.6977 26.8549 9.88873 25.6462C8.07979 24.4375 6.66989 22.7195 5.83733 20.7095C5.00477 18.6995 4.78693 16.4878 5.21137 14.354C5.63581 12.2202 6.68345 10.2602 8.22183 8.72183C9.76021 7.18345 11.7202 6.1358 13.854 5.71136C15.9878 5.28692 18.1995 5.50476 20.2095 6.33733C22.2195 7.16989 23.9375 8.57979 25.1462 10.3887C26.3549 12.1977 27 14.3244 27 16.5C26.9967 19.4164 25.8367 22.2123 23.7745 24.2745C21.7123 26.3367 18.9164 27.4967 16 27.5ZM18 22.5C18 22.7652 17.8946 23.0196 17.7071 23.2071C17.5196 23.3946 17.2652 23.5 17 23.5C16.4696 23.5 15.9609 23.2893 15.5858 22.9142C15.2107 22.5391 15 22.0304 15 21.5V16.5C14.7348 16.5 14.4804 16.3946 14.2929 16.2071C14.1054 16.0196 14 15.7652 14 15.5C14 15.2348 14.1054 14.9804 14.2929 14.7929C14.4804 14.6054 14.7348 14.5 15 14.5C15.5304 14.5 16.0391 14.7107 16.4142 15.0858C16.7893 15.4609 17 15.9696 17 16.5V21.5C17.2652 21.5 17.5196 21.6054 17.7071 21.7929C17.8946 21.9804 18 22.2348 18 22.5ZM14 11C14 10.7033 14.088 10.4133 14.2528 10.1666C14.4176 9.91997 14.6519 9.72771 14.926 9.61418C15.2001 9.50065 15.5017 9.47094 15.7926 9.52882C16.0836 9.5867 16.3509 9.72956 16.5607 9.93934C16.7704 10.1491 16.9133 10.4164 16.9712 10.7074C17.0291 10.9983 16.9994 11.2999 16.8858 11.574C16.7723 11.8481 16.58 12.0824 16.3334 12.2472C16.0867 12.412 15.7967 12.5 15.5 12.5C15.1022 12.5 14.7206 12.342 14.4393 12.0607C14.158 11.7794 14 11.3978 14 11Z" fill="white"/>
</svg>
