<svg width="32" height="32" viewBox="0 0 32 32" fill="none" xmlns="http://www.w3.org/2000/svg">
<path d="M29.83 4.17C29.4586 3.79847 29.0176 3.50375 28.5322 3.30268C28.0468 3.1016 27.5266 2.99811 27.0012 2.99811C26.4759 2.99811 25.9557 3.1016 25.4703 3.30268C24.9849 3.50375 24.5439 3.79847 24.1725 4.17C23.801 4.54145 23.5062 4.98245 23.3052 5.46781C23.1041 5.95317 23.0006 6.47339 23.0006 6.99875C23.0006 7.52412 23.1041 8.04434 23.3052 8.5297C23.5062 9.01506 23.801 9.45606 24.1725 9.8275C24.2088 9.86375 24.2475 9.89875 24.285 9.93375L20.9562 16.1163C19.9414 15.8688 18.87 16.0257 17.9688 16.5538L15.4463 14.0313C15.9425 13.1925 16.1155 12.2014 15.9327 11.2441C15.7498 10.2868 15.2238 9.42918 14.4534 8.83232C13.6829 8.23545 12.7211 7.9404 11.7485 8.00258C10.7759 8.06476 9.85942 8.47989 9.17125 9.17C8.79972 9.54145 8.505 9.98245 8.30392 10.4678C8.10285 10.9532 7.99935 11.4734 7.99935 11.9988C7.99935 12.5241 8.10285 13.0443 8.30392 13.5297C8.505 14.0151 8.79972 14.4561 9.17125 14.8275C9.2075 14.8638 9.245 14.8988 9.2825 14.9338L5.95375 21.1175C5.28558 20.953 4.58628 20.9637 3.92345 21.1486C3.26063 21.3334 2.65668 21.686 2.17 22.1725C1.61068 22.732 1.22981 23.4447 1.07554 24.2206C0.921276 24.9965 1.00054 25.8007 1.30332 26.5316C1.6061 27.2624 2.11879 27.8871 2.77656 28.3265C3.43434 28.766 4.20766 29.0006 4.99875 29.0006C5.78984 29.0006 6.56316 28.766 7.22094 28.3265C7.87871 27.8871 8.3914 27.2624 8.69418 26.5316C8.99696 25.8007 9.07623 24.9965 8.92196 24.2206C8.76769 23.4447 8.38682 22.732 7.8275 22.1725C7.79125 22.1363 7.7525 22.1013 7.715 22.0663L11.0438 15.8838C11.3567 15.9604 11.6778 15.9994 12 16C12.7142 16.0009 13.4155 15.8105 14.0313 15.4488L16.5538 17.9713C16.174 18.6158 15.9826 19.3539 16.0012 20.1017C16.0199 20.8495 16.2479 21.5771 16.6594 22.2019C17.0708 22.8267 17.6492 23.3235 18.3289 23.636C19.0085 23.9486 19.7622 24.0643 20.5043 23.9699C21.2464 23.8756 21.9472 23.5751 22.5271 23.1025C23.1069 22.6299 23.5427 22.0041 23.7848 21.2963C24.0268 20.5885 24.0656 19.827 23.8966 19.0983C23.7276 18.3695 23.3577 17.7028 22.8288 17.1738C22.7925 17.1375 22.755 17.1025 22.7175 17.0675L26.0462 10.885C26.3585 10.9611 26.6786 10.9997 27 11C27.791 10.9999 28.5641 10.7653 29.2218 10.3258C29.8794 9.88636 30.392 9.26179 30.6948 8.53106C30.9975 7.80034 31.0768 6.99626 30.9227 6.22046C30.7686 5.44466 30.3879 4.73198 29.8288 4.1725L29.83 4.17ZM6.4125 26.4163C6.03722 26.7914 5.52829 27.002 4.99768 27.0019C4.46707 27.0018 3.95824 26.7909 3.58313 26.4156C3.20801 26.0403 2.99734 25.5314 2.99746 25.0008C2.99757 24.4702 3.20847 23.9614 3.58375 23.5863C3.76957 23.4005 3.99016 23.2532 4.23291 23.1527C4.47567 23.0522 4.73584 23.0005 4.99857 23.0006C5.2613 23.0006 5.52145 23.0524 5.76416 23.153C6.00687 23.2536 6.22739 23.4011 6.41313 23.5869C6.59886 23.7727 6.74618 23.9933 6.84667 24.236C6.94716 24.4788 6.99885 24.739 6.9988 25.0017C6.99874 25.2644 6.94693 25.5246 6.84633 25.7673C6.74574 26.01 6.59832 26.2305 6.4125 26.4163ZM10.585 13.4163C10.3992 13.2305 10.2519 13.01 10.1513 12.7674C10.0508 12.5247 9.99905 12.2646 9.99905 12.0019C9.99905 11.7392 10.0508 11.4791 10.1513 11.2364C10.2519 10.9937 10.3992 10.7732 10.585 10.5875C10.8647 10.3078 11.2211 10.1174 11.609 10.0403C11.997 9.96314 12.3991 10.0028 12.7645 10.1542C13.13 10.3056 13.4423 10.5619 13.662 10.8908C13.8818 11.2197 13.9991 11.6063 13.9991 12.0019C13.9991 12.3974 13.8818 12.7841 13.662 13.113C13.4423 13.4419 13.13 13.6982 12.7645 13.8496C12.3991 14.001 11.997 14.0406 11.609 13.9635C11.2211 13.8863 10.8647 13.6959 10.585 13.4163ZM21.415 21.4163C21.0399 21.7914 20.5311 22.0021 20.0006 22.0021C19.4701 22.0021 18.9614 21.7914 18.5863 21.4163C18.2111 21.0411 18.0004 20.5324 18.0004 20.0019C18.0004 19.4714 18.2111 18.9626 18.5863 18.5875C18.9614 18.2124 19.4701 18.0016 20.0006 18.0016C20.5311 18.0016 21.0399 18.2124 21.415 18.5875C21.7901 18.9626 22.0009 19.4714 22.0009 20.0019C22.0009 20.5324 21.7901 21.0411 21.415 21.4163ZM28.415 8.41625C28.0394 8.7912 27.5302 9.00158 26.9995 9.00112C26.4688 9.00065 25.9599 8.78937 25.585 8.41375C25.21 8.03814 24.9997 7.52896 25.0001 6.99824C25.0006 6.46751 25.2119 5.9587 25.5875 5.58375C25.7733 5.39802 25.9939 5.2507 26.2367 5.15021C26.4794 5.04972 26.7396 4.99803 27.0023 4.99808C27.265 4.99814 27.5252 5.04995 27.7679 5.15054C28.0106 5.25114 28.2311 5.39856 28.4169 5.58438C28.6026 5.7702 28.7499 5.99078 28.8504 6.23354C28.9509 6.47629 29.0026 6.73646 29.0025 6.9992C29.0025 7.26193 28.9507 7.52207 28.8501 7.76479C28.7495 8.0075 28.6021 8.22802 28.4163 8.41375L28.415 8.41625Z" fill="black"/>
</svg>
