<svg width="32" height="33" viewBox="0 0 32 33" fill="none" xmlns="http://www.w3.org/2000/svg">
<path d="M11.6637 9.24999L3.49999 16.5L11.6587 23.75C11.7572 23.8371 11.8376 23.9429 11.8952 24.0611C11.9529 24.1793 11.9867 24.3077 11.9947 24.439C12.0027 24.5703 11.9847 24.7018 11.9419 24.8262C11.8991 24.9505 11.8322 25.0652 11.745 25.1637C11.6578 25.2622 11.5521 25.3426 11.4339 25.4002C11.3157 25.4579 11.1873 25.4916 11.056 25.4997C10.9247 25.5077 10.7931 25.4897 10.6688 25.4469C10.5444 25.4041 10.4297 25.3371 10.3312 25.25L1.33124 17.25C1.22483 17.1561 1.13961 17.0407 1.08124 16.9114C1.02286 16.7821 0.992676 16.6419 0.992676 16.5C0.992676 16.3581 1.02286 16.2179 1.08124 16.0885C1.13961 15.9592 1.22483 15.8438 1.33124 15.75L10.3312 7.74999C10.4297 7.66249 10.5445 7.59525 10.669 7.55211C10.7934 7.50897 10.9252 7.49077 11.0567 7.49855C11.1882 7.50632 11.3169 7.53993 11.4354 7.59744C11.554 7.65495 11.66 7.73524 11.7475 7.83373C11.835 7.93223 11.9022 8.04699 11.9454 8.17146C11.9885 8.29594 12.0067 8.42769 11.9989 8.55921C11.9912 8.69072 11.9575 8.81941 11.9 8.93793C11.8425 9.05646 11.7622 9.16249 11.6637 9.24999ZM30.6637 15.75L21.6637 7.74999C21.4648 7.57395 21.2041 7.48414 20.939 7.50031C20.6739 7.51649 20.426 7.63732 20.25 7.83624C20.074 8.03515 19.9841 8.29584 20.0003 8.56097C20.0165 8.8261 20.1373 9.07395 20.3362 9.24999L28.5 16.5L20.3412 23.75C20.2427 23.8371 20.1624 23.9429 20.1048 24.0611C20.0471 24.1793 20.0133 24.3077 20.0053 24.439C19.9973 24.5703 20.0152 24.7018 20.0581 24.8262C20.1009 24.9505 20.1678 25.0652 20.255 25.1637C20.3422 25.2622 20.4479 25.3426 20.5661 25.4002C20.6843 25.4579 20.8127 25.4916 20.944 25.4997C21.0753 25.5077 21.2069 25.4897 21.3312 25.4469C21.4556 25.4041 21.5702 25.3371 21.6687 25.25L30.6687 17.25C30.7751 17.1561 30.8604 17.0407 30.9187 16.9114C30.9771 16.7821 31.0073 16.6419 31.0073 16.5C31.0073 16.3581 30.9771 16.2179 30.9187 16.0885C30.8604 15.9592 30.7751 15.8438 30.6687 15.75H30.6637Z" fill="black"/>
</svg>
