<svg width="26" height="26" viewBox="0 0 26 26" fill="none" xmlns="http://www.w3.org/2000/svg">
<path d="M8.51161 24.858L10.0866 23.2381L11.2288 26.0184L11.2347 26.0327L11.2407 26.0469C11.9307 27.669 13.8582 28.6285 15.6793 27.8345C15.6797 27.8343 15.6801 27.8341 15.6805 27.8339L18.08 26.7882L18.0935 26.7823L18.1071 26.7762C19.7559 26.0343 20.5637 24.097 19.8544 22.3738C19.8541 22.3729 19.8537 22.3721 19.8534 22.3713L18.545 19.1843H19.996C22.9549 19.1843 24.5224 15.5379 22.3817 13.4034L8.5383 -0.83574C6.32431 -3.22927 2.74072 -1.30675 2.74072 1.5072V22.4876C2.74072 23.9315 3.62165 25.0805 4.74414 25.5847C5.9189 26.1123 7.43553 25.9647 8.51148 24.8582L8.51161 24.858Z" fill="black" stroke="white" stroke-width="5"/>
</svg>
